<svg xmlns="http://www.w3.org/2000/svg" xmlns:xlink="http://www.w3.org/1999/xlink" width="500" zoomAndPan="magnify" viewBox="0 0 375 112.499997" height="150" preserveAspectRatio="xMidYMid meet" version="1.0"><defs><g/></defs><g fill="#000000" fill-opacity="1"><g transform="translate(12.379879, 90.846234)"><g><path d="M 18.890625 0.78125 C 13.898438 0.78125 10.015625 -0.539062 7.234375 -3.1875 C 4.453125 -5.832031 3.0625 -9.570312 3.0625 -14.40625 L 3.0625 -31.09375 C 3.0625 -35.914062 4.453125 -39.648438 7.234375 -42.296875 C 10.015625 -44.953125 13.898438 -46.28125 18.890625 -46.28125 C 23.921875 -46.28125 27.695312 -44.992188 30.21875 -42.421875 C 32.738281 -39.847656 34 -36.070312 34 -31.09375 L 34 -21.953125 L 15.734375 -21.953125 L 15.734375 -13.21875 C 15.734375 -9.96875 16.785156 -8.34375 18.890625 -8.34375 C 21.085938 -8.34375 22.1875 -9.8125 22.1875 -12.75 L 22.1875 -17.546875 L 34 -17.546875 L 34 -13.140625 C 34 -8.578125 32.671875 -5.113281 30.015625 -2.75 C 27.367188 -0.394531 23.660156 0.78125 18.890625 0.78125 Z M 22.1875 -27.9375 L 22.1875 -32.5 C 22.1875 -34.175781 21.882812 -35.367188 21.28125 -36.078125 C 20.6875 -36.785156 19.863281 -37.140625 18.8125 -37.140625 C 17.8125 -37.140625 17.046875 -36.742188 16.515625 -35.953125 C 15.992188 -35.171875 15.734375 -33.785156 15.734375 -31.796875 L 15.734375 -27.9375 Z M 22.1875 -27.9375 "/></g></g></g><g fill="#000000" fill-opacity="1"><g transform="translate(49.368727, 90.846234)"><g><path d="M 18.015625 0.78125 C 13.984375 0.78125 10.640625 -0.117188 7.984375 -1.921875 C 5.335938 -3.734375 3.203125 -6.632812 1.578125 -10.625 L 10.3125 -14.484375 C 11.144531 -12.378906 12.125 -10.75 13.25 -9.59375 C 14.382812 -8.445312 15.632812 -7.875 17 -7.875 C 18.988281 -7.875 19.984375 -8.660156 19.984375 -10.234375 C 19.984375 -11.390625 19.585938 -12.425781 18.796875 -13.34375 C 18.015625 -14.257812 16.3125 -15.789062 13.6875 -17.9375 L 10.390625 -20.703125 C 7.660156 -23.003906 5.675781 -25.097656 4.4375 -26.984375 C 3.207031 -28.878906 2.59375 -31.140625 2.59375 -33.765625 C 2.59375 -36.179688 3.234375 -38.332031 4.515625 -40.21875 C 5.804688 -42.101562 7.523438 -43.582031 9.671875 -44.65625 C 11.828125 -45.738281 14.140625 -46.28125 16.609375 -46.28125 C 20.328125 -46.28125 23.429688 -45.269531 25.921875 -43.25 C 28.421875 -41.226562 30.195312 -38.328125 31.25 -34.546875 L 22.984375 -30.765625 C 22.453125 -32.453125 21.632812 -33.960938 20.53125 -35.296875 C 19.4375 -36.640625 18.234375 -37.3125 16.921875 -37.3125 C 16.078125 -37.3125 15.40625 -37.070312 14.90625 -36.59375 C 14.414062 -36.125 14.171875 -35.492188 14.171875 -34.703125 C 14.171875 -33.765625 14.679688 -32.742188 15.703125 -31.640625 C 16.722656 -30.535156 18.335938 -29.09375 20.546875 -27.3125 L 23.765625 -24.484375 C 26.390625 -22.273438 28.410156 -20.210938 29.828125 -18.296875 C 31.242188 -16.378906 31.953125 -14.132812 31.953125 -11.5625 C 31.953125 -9 31.304688 -6.785156 30.015625 -4.921875 C 28.734375 -3.054688 27.03125 -1.640625 24.90625 -0.671875 C 22.78125 0.296875 20.484375 0.78125 18.015625 0.78125 Z M 18.015625 0.78125 "/></g></g></g><g fill="#000000" fill-opacity="1"><g transform="translate(82.737392, 90.846234)"><g><path d="M 18.109375 0.46875 C 14.742188 0.46875 12.144531 -0.015625 10.3125 -0.984375 C 8.476562 -1.953125 7.191406 -3.351562 6.453125 -5.1875 C 5.722656 -7.03125 5.359375 -9.421875 5.359375 -12.359375 L 5.359375 -37.0625 L 0.9375 -37.0625 L 0.9375 -45.484375 L 5.359375 -45.484375 L 5.359375 -59.34375 L 18.34375 -59.34375 L 18.34375 -45.484375 L 24.796875 -45.484375 L 24.796875 -37.0625 L 18.34375 -37.0625 L 18.34375 -13.609375 C 18.34375 -12.359375 18.695312 -11.429688 19.40625 -10.828125 C 20.113281 -10.222656 21.097656 -9.921875 22.359375 -9.921875 C 23.398438 -9.921875 24.550781 -10.023438 25.8125 -10.234375 L 25.8125 -0.15625 C 23.289062 0.257812 20.722656 0.46875 18.109375 0.46875 Z M 18.109375 0.46875 "/></g></g></g><g fill="#000000" fill-opacity="1"><g transform="translate(110.597083, 90.846234)"><g><path d="M 4.5625 -63.75 L 17.3125 -63.75 L 17.3125 0 L 4.5625 0 Z M 4.5625 -63.75 "/></g></g></g><g fill="#0069ff" fill-opacity="1"><g transform="translate(132.17298, 90.846234)"><g><path d="M 5.59375 -63.75 L 20.703125 -63.75 L 27.703125 -26.6875 L 35.265625 -63.75 L 49.8125 -63.75 L 50.921875 0 L 40.921875 0 L 39.75 -42.421875 L 32.34375 0 L 23.453125 0 L 15.578125 -42.734375 L 14.640625 0 L 4.484375 0 Z M 5.59375 -63.75 "/></g></g></g><g fill="#0069ff" fill-opacity="1"><g transform="translate(187.577561, 90.846234)"><g><path d="M 13.375 0.78125 C 11.175781 0.78125 9.273438 0.242188 7.671875 -0.828125 C 6.066406 -1.898438 4.859375 -3.289062 4.046875 -5 C 3.234375 -6.707031 2.828125 -8.476562 2.828125 -10.3125 C 2.828125 -13.820312 3.71875 -16.707031 5.5 -18.96875 C 7.289062 -21.226562 9.429688 -22.984375 11.921875 -24.234375 C 14.410156 -25.492188 17.625 -26.804688 21.5625 -28.171875 L 21.5625 -32.734375 C 21.5625 -34.046875 21.363281 -35.039062 20.96875 -35.71875 C 20.582031 -36.40625 19.890625 -36.75 18.890625 -36.75 C 17.890625 -36.75 17.179688 -36.429688 16.765625 -35.796875 C 16.347656 -35.171875 16.113281 -34.285156 16.0625 -33.140625 L 15.734375 -29.828125 L 3.78125 -30.296875 C 3.988281 -35.753906 5.429688 -39.78125 8.109375 -42.375 C 10.785156 -44.976562 14.769531 -46.28125 20.0625 -46.28125 C 24.53125 -46.28125 27.941406 -45.03125 30.296875 -42.53125 C 32.660156 -40.039062 33.84375 -36.722656 33.84375 -32.578125 L 33.84375 -11.328125 C 33.84375 -6.710938 34.101562 -2.9375 34.625 0 L 23.140625 0 C 22.671875 -3.507812 22.328125 -5.660156 22.109375 -6.453125 C 21.484375 -4.359375 20.4375 -2.628906 18.96875 -1.265625 C 17.5 0.0976562 15.632812 0.78125 13.375 0.78125 Z M 17.9375 -7.875 C 19.25 -7.875 20.457031 -8.632812 21.5625 -10.15625 L 21.5625 -22.59375 C 19.195312 -21.226562 17.410156 -19.796875 16.203125 -18.296875 C 15.003906 -16.804688 14.40625 -14.984375 14.40625 -12.828125 C 14.40625 -11.304688 14.71875 -10.097656 15.34375 -9.203125 C 15.976562 -8.316406 16.84375 -7.875 17.9375 -7.875 Z M 17.9375 -7.875 "/></g></g></g><g fill="#0069ff" fill-opacity="1"><g transform="translate(225.038616, 90.846234)"><g><path d="M 4.171875 -45.484375 L 17 -45.484375 L 17 -37.9375 C 18.570312 -40.71875 20.09375 -42.765625 21.5625 -44.078125 C 23.03125 -45.390625 24.765625 -46.046875 26.765625 -46.046875 C 27.492188 -46.046875 28.148438 -45.96875 28.734375 -45.8125 L 28.734375 -33.0625 C 27.148438 -33.6875 25.757812 -34 24.5625 -34 C 21.78125 -34 19.257812 -32.53125 17 -29.59375 L 17 0 L 4.171875 0 Z M 4.171875 -45.484375 "/></g></g></g><g fill="#0069ff" fill-opacity="1"><g transform="translate(255.180593, 90.846234)"><g><path d="M 4.015625 -63.75 L 16.765625 -63.75 L 16.765625 -28.40625 L 27.9375 -45.484375 L 42.34375 -45.484375 L 30.21875 -26.84375 L 42.1875 0 L 28.171875 0 L 20.140625 -21.640625 L 16.765625 -17.3125 L 16.765625 0 L 4.015625 0 Z M 4.015625 -63.75 "/></g></g></g><g fill="#0069ff" fill-opacity="1"><g transform="translate(297.757119, 90.846234)"><g><path d="M 18.890625 0.78125 C 13.898438 0.78125 10.015625 -0.539062 7.234375 -3.1875 C 4.453125 -5.832031 3.0625 -9.570312 3.0625 -14.40625 L 3.0625 -31.09375 C 3.0625 -35.914062 4.453125 -39.648438 7.234375 -42.296875 C 10.015625 -44.953125 13.898438 -46.28125 18.890625 -46.28125 C 23.921875 -46.28125 27.695312 -44.992188 30.21875 -42.421875 C 32.738281 -39.847656 34 -36.070312 34 -31.09375 L 34 -21.953125 L 15.734375 -21.953125 L 15.734375 -13.21875 C 15.734375 -9.96875 16.785156 -8.34375 18.890625 -8.34375 C 21.085938 -8.34375 22.1875 -9.8125 22.1875 -12.75 L 22.1875 -17.546875 L 34 -17.546875 L 34 -13.140625 C 34 -8.578125 32.671875 -5.113281 30.015625 -2.75 C 27.367188 -0.394531 23.660156 0.78125 18.890625 0.78125 Z M 22.1875 -27.9375 L 22.1875 -32.5 C 22.1875 -34.175781 21.882812 -35.367188 21.28125 -36.078125 C 20.6875 -36.785156 19.863281 -37.140625 18.8125 -37.140625 C 17.8125 -37.140625 17.046875 -36.742188 16.515625 -35.953125 C 15.992188 -35.171875 15.734375 -33.785156 15.734375 -31.796875 L 15.734375 -27.9375 Z M 22.1875 -27.9375 "/></g></g></g><g fill="#0069ff" fill-opacity="1"><g transform="translate(334.745967, 90.846234)"><g><path d="M 18.109375 0.46875 C 14.742188 0.46875 12.144531 -0.015625 10.3125 -0.984375 C 8.476562 -1.953125 7.191406 -3.351562 6.453125 -5.1875 C 5.722656 -7.03125 5.359375 -9.421875 5.359375 -12.359375 L 5.359375 -37.0625 L 0.9375 -37.0625 L 0.9375 -45.484375 L 5.359375 -45.484375 L 5.359375 -59.34375 L 18.34375 -59.34375 L 18.34375 -45.484375 L 24.796875 -45.484375 L 24.796875 -37.0625 L 18.34375 -37.0625 L 18.34375 -13.609375 C 18.34375 -12.359375 18.695312 -11.429688 19.40625 -10.828125 C 20.113281 -10.222656 21.097656 -9.921875 22.359375 -9.921875 C 23.398438 -9.921875 24.550781 -10.023438 25.8125 -10.234375 L 25.8125 -0.15625 C 23.289062 0.257812 20.722656 0.46875 18.109375 0.46875 Z M 18.109375 0.46875 "/></g></g></g></svg>