<svg xmlns="http://www.w3.org/2000/svg" xmlns:xlink="http://www.w3.org/1999/xlink" width="500" zoomAndPan="magnify" viewBox="0 0 375 112.499997" height="150" preserveAspectRatio="xMidYMid meet" version="1.0"><defs><g/></defs><g fill="#000000" fill-opacity="1"><g transform="translate(10.011499, 77.281521)"><g><path d="M 13.265625 13.40625 C 9.015625 13.40625 5.765625 12.664062 3.515625 11.1875 C 1.273438 9.707031 0.15625 7.628906 0.15625 4.953125 C 0.15625 3.117188 0.726562 1.582031 1.875 0.34375 C 3.019531 -0.882812 4.703125 -1.765625 6.921875 -2.296875 C 6.066406 -2.648438 5.320312 -3.238281 4.6875 -4.0625 C 4.050781 -4.894531 3.734375 -5.773438 3.734375 -6.703125 C 3.734375 -7.867188 4.066406 -8.835938 4.734375 -9.609375 C 5.410156 -10.378906 6.382812 -11.132812 7.65625 -11.875 C 6.0625 -12.570312 4.796875 -13.679688 3.859375 -15.203125 C 2.921875 -16.734375 2.453125 -18.535156 2.453125 -20.609375 C 2.453125 -22.816406 2.9375 -24.695312 3.90625 -26.25 C 4.882812 -27.8125 6.300781 -29 8.15625 -29.8125 C 10.019531 -30.632812 12.289062 -31.046875 14.96875 -31.046875 C 15.53125 -31.046875 16.179688 -31.007812 16.921875 -30.9375 C 17.671875 -30.863281 18.359375 -30.78125 18.984375 -30.6875 C 19.609375 -30.59375 20.03125 -30.519531 20.25 -30.46875 L 30.875 -30.46875 L 30.875 -26.25 L 26.109375 -25.015625 C 26.546875 -24.347656 26.875 -23.628906 27.09375 -22.859375 C 27.3125 -22.097656 27.421875 -21.289062 27.421875 -20.4375 C 27.421875 -17.164062 26.28125 -14.617188 24 -12.796875 C 21.71875 -10.972656 18.550781 -10.0625 14.5 -10.0625 C 13.53125 -10.113281 12.617188 -10.1875 11.765625 -10.28125 C 11.347656 -9.945312 11.03125 -9.597656 10.8125 -9.234375 C 10.59375 -8.867188 10.484375 -8.488281 10.484375 -8.09375 C 10.484375 -7.695312 10.648438 -7.363281 10.984375 -7.09375 C 11.328125 -6.832031 11.835938 -6.632812 12.515625 -6.5 C 13.203125 -6.363281 14.054688 -6.296875 15.078125 -6.296875 L 20.25 -6.296875 C 23.59375 -6.296875 26.140625 -5.578125 27.890625 -4.140625 C 29.640625 -2.703125 30.515625 -0.59375 30.515625 2.1875 C 30.515625 5.738281 29.03125 8.492188 26.0625 10.453125 C 23.09375 12.421875 18.828125 13.40625 13.265625 13.40625 Z M 13.625 7.984375 C 15.601562 7.984375 17.304688 7.796875 18.734375 7.421875 C 20.160156 7.054688 21.253906 6.53125 22.015625 5.84375 C 22.785156 5.164062 23.171875 4.351562 23.171875 3.40625 C 23.171875 2.644531 22.945312 2.039062 22.5 1.59375 C 22.050781 1.144531 21.375 0.828125 20.46875 0.640625 C 19.570312 0.460938 18.425781 0.375 17.03125 0.375 L 12.734375 0.375 C 11.710938 0.375 10.796875 0.535156 9.984375 0.859375 C 9.179688 1.191406 8.539062 1.65625 8.0625 2.25 C 7.59375 2.84375 7.359375 3.53125 7.359375 4.3125 C 7.359375 5.445312 7.90625 6.34375 9 7 C 10.101562 7.65625 11.644531 7.984375 13.625 7.984375 Z M 14.96875 -15.125 C 16.53125 -15.125 17.671875 -15.601562 18.390625 -16.5625 C 19.117188 -17.53125 19.484375 -18.84375 19.484375 -20.5 C 19.484375 -22.332031 19.101562 -23.707031 18.34375 -24.625 C 17.59375 -25.539062 16.46875 -26 14.96875 -26 C 13.4375 -26 12.289062 -25.539062 11.53125 -24.625 C 10.769531 -23.707031 10.390625 -22.332031 10.390625 -20.5 C 10.390625 -18.84375 10.765625 -17.53125 11.515625 -16.5625 C 12.265625 -15.601562 13.414062 -15.125 14.96875 -15.125 Z M 14.96875 -15.125 "/></g></g></g><g fill="#000000" fill-opacity="1"><g transform="translate(41.536797, 77.281521)"><g><path d="M 16.84375 -31.09375 C 20.925781 -31.09375 24.054688 -30.203125 26.234375 -28.421875 C 28.421875 -26.640625 29.515625 -23.929688 29.515625 -20.296875 L 29.515625 0 L 23.703125 0 L 22.09375 -4.140625 L 21.890625 -4.140625 C 21.015625 -3.046875 20.117188 -2.15625 19.203125 -1.46875 C 18.296875 -0.78125 17.253906 -0.273438 16.078125 0.046875 C 14.898438 0.378906 13.460938 0.546875 11.765625 0.546875 C 9.972656 0.546875 8.363281 0.203125 6.9375 -0.484375 C 5.507812 -1.179688 4.382812 -2.242188 3.5625 -3.671875 C 2.75 -5.097656 2.34375 -6.910156 2.34375 -9.109375 C 2.34375 -12.335938 3.476562 -14.71875 5.75 -16.25 C 8.019531 -17.789062 11.425781 -18.640625 15.96875 -18.796875 L 21.25 -18.96875 L 21.25 -20.296875 C 21.25 -21.898438 20.832031 -23.070312 20 -23.8125 C 19.164062 -24.5625 18.003906 -24.9375 16.515625 -24.9375 C 15.046875 -24.9375 13.601562 -24.726562 12.1875 -24.3125 C 10.769531 -23.894531 9.351562 -23.367188 7.9375 -22.734375 L 5.171875 -28.34375 C 6.796875 -29.195312 8.609375 -29.867188 10.609375 -30.359375 C 12.617188 -30.847656 14.695312 -31.09375 16.84375 -31.09375 Z M 21.25 -14.109375 L 18.046875 -14 C 15.347656 -13.9375 13.476562 -13.457031 12.4375 -12.5625 C 11.394531 -11.675781 10.875 -10.503906 10.875 -9.046875 C 10.875 -7.773438 11.242188 -6.867188 11.984375 -6.328125 C 12.734375 -5.796875 13.707031 -5.53125 14.90625 -5.53125 C 16.6875 -5.53125 18.1875 -6.054688 19.40625 -7.109375 C 20.632812 -8.160156 21.25 -9.660156 21.25 -11.609375 Z M 21.25 -14.109375 "/></g></g></g><g fill="#000000" fill-opacity="1"><g transform="translate(75.241891, 77.281521)"><g><path d="M 21.359375 -31.046875 C 21.785156 -31.046875 22.273438 -31.019531 22.828125 -30.96875 C 23.378906 -30.925781 23.828125 -30.867188 24.171875 -30.796875 L 23.546875 -23 C 23.273438 -23.09375 22.890625 -23.160156 22.390625 -23.203125 C 21.890625 -23.242188 21.457031 -23.265625 21.09375 -23.265625 C 20.019531 -23.265625 18.976562 -23.128906 17.96875 -22.859375 C 16.957031 -22.585938 16.050781 -22.144531 15.25 -21.53125 C 14.457031 -20.925781 13.828125 -20.128906 13.359375 -19.140625 C 12.898438 -18.148438 12.671875 -16.9375 12.671875 -15.5 L 12.671875 0 L 4.359375 0 L 4.359375 -30.46875 L 10.65625 -30.46875 L 11.875 -25.34375 L 12.296875 -25.34375 C 12.890625 -26.375 13.632812 -27.320312 14.53125 -28.1875 C 15.4375 -29.050781 16.460938 -29.742188 17.609375 -30.265625 C 18.765625 -30.785156 20.015625 -31.046875 21.359375 -31.046875 Z M 21.359375 -31.046875 "/></g></g></g><g fill="#000000" fill-opacity="1"><g transform="translate(100.582014, 77.281521)"><g><path d="M 25.5625 0 L 1.5 0 L 1.5 -4.90625 L 15.609375 -24.125 L 2.34375 -24.125 L 2.34375 -30.46875 L 25.078125 -30.46875 L 25.078125 -25.078125 L 11.34375 -6.34375 L 25.5625 -6.34375 Z M 25.5625 0 "/></g></g></g><g fill="#000000" fill-opacity="1"><g transform="translate(127.802215, 77.281521)"><g><path d="M 16.84375 -31.09375 C 20.925781 -31.09375 24.054688 -30.203125 26.234375 -28.421875 C 28.421875 -26.640625 29.515625 -23.929688 29.515625 -20.296875 L 29.515625 0 L 23.703125 0 L 22.09375 -4.140625 L 21.890625 -4.140625 C 21.015625 -3.046875 20.117188 -2.15625 19.203125 -1.46875 C 18.296875 -0.78125 17.253906 -0.273438 16.078125 0.046875 C 14.898438 0.378906 13.460938 0.546875 11.765625 0.546875 C 9.972656 0.546875 8.363281 0.203125 6.9375 -0.484375 C 5.507812 -1.179688 4.382812 -2.242188 3.5625 -3.671875 C 2.75 -5.097656 2.34375 -6.910156 2.34375 -9.109375 C 2.34375 -12.335938 3.476562 -14.71875 5.75 -16.25 C 8.019531 -17.789062 11.425781 -18.640625 15.96875 -18.796875 L 21.25 -18.96875 L 21.25 -20.296875 C 21.25 -21.898438 20.832031 -23.070312 20 -23.8125 C 19.164062 -24.5625 18.003906 -24.9375 16.515625 -24.9375 C 15.046875 -24.9375 13.601562 -24.726562 12.1875 -24.3125 C 10.769531 -23.894531 9.351562 -23.367188 7.9375 -22.734375 L 5.171875 -28.34375 C 6.796875 -29.195312 8.609375 -29.867188 10.609375 -30.359375 C 12.617188 -30.847656 14.695312 -31.09375 16.84375 -31.09375 Z M 21.25 -14.109375 L 18.046875 -14 C 15.347656 -13.9375 13.476562 -13.457031 12.4375 -12.5625 C 11.394531 -11.675781 10.875 -10.503906 10.875 -9.046875 C 10.875 -7.773438 11.242188 -6.867188 11.984375 -6.328125 C 12.734375 -5.796875 13.707031 -5.53125 14.90625 -5.53125 C 16.6875 -5.53125 18.1875 -6.054688 19.40625 -7.109375 C 20.632812 -8.160156 21.25 -9.660156 21.25 -11.609375 Z M 21.25 -14.109375 "/></g></g></g><g fill="#0069ff" fill-opacity="1"><g transform="translate(161.517818, 77.281521)"><g><path d="M 21.890625 0 L 12.296875 -31.265625 L 12.046875 -31.265625 C 12.078125 -30.515625 12.132812 -29.390625 12.21875 -27.890625 C 12.300781 -26.390625 12.378906 -24.796875 12.453125 -23.109375 C 12.523438 -21.421875 12.5625 -19.894531 12.5625 -18.53125 L 12.5625 0 L 5.015625 0 L 5.015625 -39.84375 L 16.515625 -39.84375 L 25.9375 -9.375 L 26.109375 -9.375 L 36.109375 -39.84375 L 47.609375 -39.84375 L 47.609375 0 L 39.734375 0 L 39.734375 -18.859375 C 39.734375 -20.109375 39.753906 -21.550781 39.796875 -23.1875 C 39.847656 -24.820312 39.910156 -26.378906 39.984375 -27.859375 C 40.054688 -29.347656 40.109375 -30.460938 40.140625 -31.203125 L 39.890625 -31.203125 L 29.625 0 Z M 21.890625 0 "/></g></g></g><g fill="#0069ff" fill-opacity="1"><g transform="translate(214.132638, 77.281521)"><g><path d="M 16.84375 -31.09375 C 20.925781 -31.09375 24.054688 -30.203125 26.234375 -28.421875 C 28.421875 -26.640625 29.515625 -23.929688 29.515625 -20.296875 L 29.515625 0 L 23.703125 0 L 22.09375 -4.140625 L 21.890625 -4.140625 C 21.015625 -3.046875 20.117188 -2.15625 19.203125 -1.46875 C 18.296875 -0.78125 17.253906 -0.273438 16.078125 0.046875 C 14.898438 0.378906 13.460938 0.546875 11.765625 0.546875 C 9.972656 0.546875 8.363281 0.203125 6.9375 -0.484375 C 5.507812 -1.179688 4.382812 -2.242188 3.5625 -3.671875 C 2.75 -5.097656 2.34375 -6.910156 2.34375 -9.109375 C 2.34375 -12.335938 3.476562 -14.71875 5.75 -16.25 C 8.019531 -17.789062 11.425781 -18.640625 15.96875 -18.796875 L 21.25 -18.96875 L 21.25 -20.296875 C 21.25 -21.898438 20.832031 -23.070312 20 -23.8125 C 19.164062 -24.5625 18.003906 -24.9375 16.515625 -24.9375 C 15.046875 -24.9375 13.601562 -24.726562 12.1875 -24.3125 C 10.769531 -23.894531 9.351562 -23.367188 7.9375 -22.734375 L 5.171875 -28.34375 C 6.796875 -29.195312 8.609375 -29.867188 10.609375 -30.359375 C 12.617188 -30.847656 14.695312 -31.09375 16.84375 -31.09375 Z M 21.25 -14.109375 L 18.046875 -14 C 15.347656 -13.9375 13.476562 -13.457031 12.4375 -12.5625 C 11.394531 -11.675781 10.875 -10.503906 10.875 -9.046875 C 10.875 -7.773438 11.242188 -6.867188 11.984375 -6.328125 C 12.734375 -5.796875 13.707031 -5.53125 14.90625 -5.53125 C 16.6875 -5.53125 18.1875 -6.054688 19.40625 -7.109375 C 20.632812 -8.160156 21.25 -9.660156 21.25 -11.609375 Z M 21.25 -14.109375 "/></g></g></g><g fill="#0069ff" fill-opacity="1"><g transform="translate(247.837732, 77.281521)"><g><path d="M 21.359375 -31.046875 C 21.785156 -31.046875 22.273438 -31.019531 22.828125 -30.96875 C 23.378906 -30.925781 23.828125 -30.867188 24.171875 -30.796875 L 23.546875 -23 C 23.273438 -23.09375 22.890625 -23.160156 22.390625 -23.203125 C 21.890625 -23.242188 21.457031 -23.265625 21.09375 -23.265625 C 20.019531 -23.265625 18.976562 -23.128906 17.96875 -22.859375 C 16.957031 -22.585938 16.050781 -22.144531 15.25 -21.53125 C 14.457031 -20.925781 13.828125 -20.128906 13.359375 -19.140625 C 12.898438 -18.148438 12.671875 -16.9375 12.671875 -15.5 L 12.671875 0 L 4.359375 0 L 4.359375 -30.46875 L 10.65625 -30.46875 L 11.875 -25.34375 L 12.296875 -25.34375 C 12.890625 -26.375 13.632812 -27.320312 14.53125 -28.1875 C 15.4375 -29.050781 16.460938 -29.742188 17.609375 -30.265625 C 18.765625 -30.785156 20.015625 -31.046875 21.359375 -31.046875 Z M 21.359375 -31.046875 "/></g></g></g><g fill="#0069ff" fill-opacity="1"><g transform="translate(273.177854, 77.281521)"><g><path d="M 12.671875 -42.40625 L 12.671875 -23.4375 C 12.671875 -22.289062 12.625 -21.144531 12.53125 -20 C 12.445312 -18.851562 12.347656 -17.707031 12.234375 -16.5625 L 12.34375 -16.5625 C 12.90625 -17.363281 13.484375 -18.15625 14.078125 -18.9375 C 14.671875 -19.71875 15.300781 -20.472656 15.96875 -21.203125 L 24.5 -30.46875 L 33.875 -30.46875 L 21.78125 -17.25 L 34.609375 0 L 25.015625 0 L 16.25 -12.34375 L 12.671875 -9.484375 L 12.671875 0 L 4.359375 0 L 4.359375 -42.40625 Z M 12.671875 -42.40625 "/></g></g></g><g fill="#0069ff" fill-opacity="1"><g transform="translate(307.782107, 77.281521)"><g><path d="M 16.921875 -31.046875 C 19.734375 -31.046875 22.15625 -30.503906 24.1875 -29.421875 C 26.226562 -28.335938 27.800781 -26.769531 28.90625 -24.71875 C 30.019531 -22.664062 30.578125 -20.160156 30.578125 -17.203125 L 30.578125 -13.15625 L 10.921875 -13.15625 C 11.015625 -10.8125 11.71875 -8.972656 13.03125 -7.640625 C 14.351562 -6.304688 16.1875 -5.640625 18.53125 -5.640625 C 20.476562 -5.640625 22.257812 -5.835938 23.875 -6.234375 C 25.488281 -6.640625 27.148438 -7.242188 28.859375 -8.046875 L 28.859375 -1.609375 C 27.347656 -0.859375 25.769531 -0.3125 24.125 0.03125 C 22.488281 0.375 20.5 0.546875 18.15625 0.546875 C 15.101562 0.546875 12.398438 -0.015625 10.046875 -1.140625 C 7.691406 -2.265625 5.84375 -3.976562 4.5 -6.28125 C 3.164062 -8.59375 2.5 -11.503906 2.5 -15.015625 C 2.5 -18.578125 3.101562 -21.539062 4.3125 -23.90625 C 5.519531 -26.28125 7.207031 -28.0625 9.375 -29.25 C 11.539062 -30.445312 14.054688 -31.046875 16.921875 -31.046875 Z M 16.984375 -25.125 C 15.359375 -25.125 14.015625 -24.601562 12.953125 -23.5625 C 11.890625 -22.53125 11.28125 -20.90625 11.125 -18.6875 L 22.78125 -18.6875 C 22.757812 -19.925781 22.535156 -21.023438 22.109375 -21.984375 C 21.679688 -22.953125 21.046875 -23.71875 20.203125 -24.28125 C 19.359375 -24.84375 18.285156 -25.125 16.984375 -25.125 Z M 16.984375 -25.125 "/></g></g></g><g fill="#0069ff" fill-opacity="1"><g transform="translate(340.751515, 77.281521)"><g><path d="M 17.203125 -6.078125 C 18.109375 -6.078125 18.988281 -6.164062 19.84375 -6.34375 C 20.707031 -6.53125 21.566406 -6.757812 22.421875 -7.03125 L 22.421875 -0.84375 C 21.535156 -0.445312 20.429688 -0.117188 19.109375 0.140625 C 17.796875 0.410156 16.359375 0.546875 14.796875 0.546875 C 12.984375 0.546875 11.351562 0.253906 9.90625 -0.328125 C 8.457031 -0.921875 7.320312 -1.945312 6.5 -3.40625 C 5.675781 -4.875 5.265625 -6.914062 5.265625 -9.53125 L 5.265625 -24.234375 L 1.28125 -24.234375 L 1.28125 -27.75 L 5.859375 -30.515625 L 8.25 -36.953125 L 13.578125 -36.953125 L 13.578125 -30.46875 L 22.09375 -30.46875 L 22.09375 -24.234375 L 13.578125 -24.234375 L 13.578125 -9.53125 C 13.578125 -8.375 13.90625 -7.507812 14.5625 -6.9375 C 15.226562 -6.363281 16.109375 -6.078125 17.203125 -6.078125 Z M 17.203125 -6.078125 "/></g></g></g></svg>